<?xml version="1.0" encoding="utf-8"?>
<svg width="52px" height="23px" viewBox="0 0 52 23" version="1.1" xmlns:xlink="http://www.w3.org/1999/xlink" xmlns="http://www.w3.org/2000/svg">
  <g id="Group">
    <g id="Next" fill="#14B8A6">
      <path d="M12.7589 18.4091L12.7589 4.59091L9.85085 4.59091L9.85085 13.2813L9.7294 13.2813L3.76491 4.59091L1.20099 4.59091L1.20099 18.4091L4.12251 18.4091L4.12251 9.712L4.22372 9.712L10.2354 18.4091L12.7589 18.4091ZM42.8849 10.2045L42.8849 8.04545L40.935 8.04545L40.935 5.5625L38.0607 5.5625L38.0607 8.04545L36.6438 8.04545L36.6438 10.2045L38.0607 10.2045L38.0607 15.6023Q38.054 17.1271 39.002 17.8727Q39.9499 18.6183 41.5153 18.5508Q42.0753 18.5305 42.4666 18.4395Q42.858 18.3484 43.0739 18.2809L42.6218 16.142Q42.5139 16.1623 42.3114 16.1994Q42.109 16.2365 41.9066 16.2365Q41.4748 16.2365 41.2049 16.0273Q40.935 15.8182 40.935 15.2244L40.935 10.2045L42.8849 10.2045ZM17.0906 17.9604Q18.2443 18.6115 19.8366 18.6115Q21.7596 18.6115 22.9943 17.7479Q24.229 16.8842 24.5327 15.4403L21.8743 15.2649Q21.6584 15.8587 21.1321 16.1623Q20.6058 16.4659 19.8839 16.4659Q18.8043 16.4659 18.1701 15.7979Q17.5359 15.13 17.5359 13.9695L17.5359 13.9627L24.5934 13.9627L24.5934 13.1733Q24.5934 11.4123 23.9457 10.2417Q23.2979 9.07102 22.1948 8.49077Q21.0916 7.91051 19.7219 7.91051Q18.1971 7.91051 17.0669 8.58523Q15.9368 9.25994 15.3161 10.4677Q14.6953 11.6754 14.6953 13.2745Q14.6953 14.9141 15.3161 16.1117Q15.9368 17.3093 17.0906 17.9604ZM28.8711 8.04545L30.7738 11.6687L32.7237 8.04545L35.6722 8.04545L32.6697 13.2273L35.7532 18.4091L32.8182 18.4091L30.7738 14.8264L28.7631 18.4091L25.7944 18.4091L28.8711 13.2273L25.9023 8.04545L28.8711 8.04545ZM21.8878 12.1815L17.5359 12.1815Q17.5831 11.2976 18.1971 10.6768Q18.8111 10.0561 19.7692 10.0561Q20.707 10.0561 21.294 10.6566Q21.881 11.2571 21.8878 12.1815Z" />
    </g>
  </g>
</svg>